<svg width="512" height="512" viewBox="0 0 512 512" fill="none" xmlns="http://www.w3.org/2000/svg">
<path d="M460.8 76.8002C460.8 69.1307 457.362 61.8652 451.43 57.0027C445.499 52.1402 437.701 50.1931 430.18 51.6974L174.179 102.897C162.213 105.29 153.6 115.797 153.6 128V361.313C145.593 359.426 136.976 358.4 128 358.4C85.5846 358.4 51.2 381.322 51.2 409.6C51.2 437.878 85.5846 460.8 128 460.8C170.415 460.8 204.8 437.878 204.8 409.6V200.187L409.6 159.227V310.113C401.592 308.226 392.975 307.2 384 307.2C341.583 307.2 307.2 330.122 307.2 358.4C307.2 386.678 341.583 409.6 384 409.6C426.417 409.6 460.8 386.678 460.8 358.4V76.8002Z" fill="#27272A"/>
</svg>
